<svg xmlns="http://www.w3.org/2000/svg" width="1400" height="760" viewBox="0 0 1400 760" role="img" aria-labelledby="title desc">
<title id="title">Cisco WLC AP Monitor overview</title>
<desc id="desc">An anonymized demonstration of the LibreNMS Cisco WLC AP Monitor interface. All names, addresses and values are fictional.</desc>
<style>
  text{font-family:Arial,Helvetica,sans-serif;fill:#d9dde3}.small{font-size:12px}.normal{font-size:14px}.head{font-size:15px;font-weight:700}.title{font-size:17px;font-weight:700}.muted{fill:#aeb5bf}.white{fill:#fff}.green{fill:#70bf63}.red{fill:#dc6658}.orange{fill:#eda02b}.blue{fill:#4988c7}.line{stroke:#252a30;stroke-width:1}.row1{fill:#343941}.row2{fill:#2d3238}
</style>
<rect width="1400" height="760" fill="#20242a"/>
<rect width="1400" height="42" fill="#343941"/>
<text x="18" y="27" class="title">LibreNMS</text>
<text x="125" y="27" class="normal">⌂ Overview</text><text x="230" y="27" class="normal">▣ Devices</text><text x="325" y="27" class="normal">▰ Maps</text><text x="405" y="27" class="normal">🔗 Ports</text><text x="490" y="27" class="normal">♥ Health</text><text x="580" y="27" class="normal">⌁ Wireless</text><text x="690" y="27" class="normal">⚙ Services</text><text x="790" y="27" class="normal">Apps</text><text x="865" y="27" class="normal">Routing</text><text x="950" y="27" class="normal">● Alerts</text>
<text x="1310" y="27" class="small">demo</text>
<rect x="10" y="52" width="1380" height="34" rx="2" fill="#343941"/><text x="22" y="74" class="head">Cisco WLC AP Monitor</text>
<g transform="translate(16 100)">
 <rect width="325" height="72" rx="3" fill="#2d3238" stroke="#171a1e"/><rect width="325" height="30" rx="3" class="green"/><text x="12" y="20" class="head white">Up</text><text x="12" y="57" font-size="24">107</text>
 <g transform="translate(348 0)"><rect width="325" height="72" rx="3" fill="#2d3238" stroke="#171a1e"/><rect width="325" height="30" rx="3" class="red"/><text x="12" y="20" class="head white">Down</text><text x="12" y="57" font-size="24">1</text></g>
 <g transform="translate(696 0)"><rect width="325" height="72" rx="3" fill="#2d3238" stroke="#171a1e"/><rect width="325" height="30" rx="3" class="orange"/><text x="12" y="20" class="head white">Ignored</text><text x="12" y="57" font-size="24">0</text></g>
 <g transform="translate(1044 0)"><rect width="325" height="72" rx="3" fill="#2d3238" stroke="#171a1e"/><rect width="325" height="30" rx="3" fill="#454b54"/><text x="12" y="20" class="head">Retired</text><text x="12" y="57" font-size="24">0</text></g>
</g>
<g transform="translate(16 192)">
 <rect width="78" height="30" rx="3" fill="#fff"/><text x="12" y="20" fill="#333" class="small">Active⌄</text>
 <rect x="88" width="160" height="30" rx="3" fill="#fff"/><text x="100" y="20" fill="#333" class="small">All WLCs⌄</text>
 <rect x="258" width="235" height="30" rx="3" fill="#fff"/><text x="270" y="20" fill="#777" class="small">AP name, local IP, MAC, channel</text>
 <rect x="503" width="52" height="30" rx="3" class="blue"/><text x="516" y="20" class="small white">Filter</text>
 <rect x="565" width="52" height="30" rx="3" fill="#454b54"/><text x="578" y="20" class="small white">Reset</text>
</g>
<g transform="translate(16 240)">
 <text x="4" y="16" class="head">Status ▲</text><text x="78" y="16" class="head">Access point</text><text x="282" y="16" class="head">Local IP</text><text x="390" y="16" class="head">Controller</text><text x="520" y="16" class="head">Clients</text><text x="584" y="16" class="head">Radios</text><text x="648" y="16" class="head">Channels</text><text x="730" y="16" class="head">Max util.</text><text x="812" y="16" class="head">Radio MAC</text><text x="970" y="16" class="head">Last seen</text><text x="1120" y="16" class="head">Down since</text><text x="1230" y="16" class="head">Actions</text>
 <line x1="0" y1="25" x2="1368" y2="25" class="line"/>
</g>
<g transform="translate(16 266)" class="small">
 <g><rect width="1368" height="47" class="row1"/><rect x="4" y="14" width="24" height="16" rx="2" class="green"/><text x="9" y="26" class="white">UP</text><text x="78" y="27" class="head">BLD-LOBBY-AP1</text><text x="282" y="27">192.168.10.21</text><text x="390" y="20">ctrl-wlc-1</text><text x="390" y="36" class="muted">10.20.30.254</text><text x="520" y="27">5</text><text x="584" y="27">2</text><text x="648" y="27">1, 36</text><text x="730" y="27">8%</text><text x="812" y="27">5c:11:ab:22:33:44</text><text x="970" y="27">2026-05-21 14:23:18</text><text x="1120" y="27">—</text><rect x="1230" y="10" width="55" height="25" fill="#fff"/><text x="1240" y="27" fill="#555">Reason</text><rect x="1292" y="10" width="55" height="25" class="orange"/><text x="1303" y="27" class="white">Ignore</text></g>
 <g transform="translate(0 47)"><rect width="1368" height="47" class="row2"/><rect x="4" y="14" width="24" height="16" rx="2" class="green"/><text x="9" y="26" class="white">UP</text><text x="78" y="27" class="head">BLD-LOBBY-AP2</text><text x="282" y="27">192.168.10.22</text><text x="390" y="20">ctrl-wlc-1</text><text x="390" y="36" class="muted">10.20.30.254</text><text x="520" y="27">3</text><text x="584" y="27">2</text><text x="648" y="27">11, 36</text><text x="730" y="27">15%</text><text x="812" y="27">8c:aa:bb:cc:dd:ee</text><text x="970" y="27">2026-05-21 14:23:17</text><text x="1120" y="27">—</text></g>
 <g transform="translate(0 94)"><rect width="1368" height="47" class="row1"/><rect x="4" y="14" width="24" height="16" rx="2" class="green"/><text x="9" y="26" class="white">UP</text><text x="78" y="27" class="head">BLD-FLOOR1-AP1</text><text x="282" y="27">192.168.10.31</text><text x="390" y="20">ctrl-wlc-1</text><text x="390" y="36" class="muted">10.20.30.254</text><text x="520" y="27">12</text><text x="584" y="27">2</text><text x="648" y="27">6, 36</text><text x="730" y="27">22%</text><text x="812" y="27">b0:11:22:33:44:55</text><text x="970" y="27">2026-05-21 14:23:19</text><text x="1120" y="27">—</text></g>
 <g transform="translate(0 141)"><rect width="1368" height="47" class="row2"/><rect x="4" y="14" width="24" height="16" rx="2" class="green"/><text x="9" y="26" class="white">UP</text><text x="78" y="27" class="head">BLD-FLOOR1-AP2</text><text x="282" y="27">192.168.10.32</text><text x="390" y="20">ctrl-wlc-1</text><text x="390" y="36" class="muted">10.20.30.254</text><text x="520" y="27">7</text><text x="584" y="27">2</text><text x="648" y="27">1, 36</text><text x="730" y="27">18%</text><text x="812" y="27">b0:11:22:33:44:56</text><text x="970" y="27">2026-05-21 14:23:18</text><text x="1120" y="27">—</text></g>
 <g transform="translate(0 188)"><rect width="1368" height="47" class="row1"/><rect x="4" y="14" width="24" height="16" rx="2" class="green"/><text x="9" y="26" class="white">UP</text><text x="78" y="27" class="head">BLD-CONF-ROOM</text><text x="282" y="27">192.168.10.50</text><text x="390" y="20">ctrl-wlc-1</text><text x="390" y="36" class="muted">10.20.30.254</text><text x="520" y="27">15</text><text x="584" y="27">2</text><text x="648" y="27">1, 40</text><text x="730" y="27">28%</text><text x="812" y="27">c4:aa:bb:cc:dd:01</text><text x="970" y="27">2026-05-21 14:23:19</text><text x="1120" y="27">—</text></g>
 <g transform="translate(0 235)"><rect width="1368" height="47" class="row2"/><rect x="4" y="14" width="42" height="16" rx="2" class="red"/><text x="8" y="26" class="white">DOWN</text><text x="78" y="27" class="head">ROOFTOP-AP1</text><text x="282" y="27">—</text><text x="390" y="20">branch-wlc-2</text><text x="390" y="36" class="muted">10.20.20.254</text><text x="520" y="27">0</text><text x="584" y="27">2</text><text x="648" y="27">1, 36</text><text x="730" y="27">—</text><text x="812" y="27">00:aa:bb:cc:dd:ee</text><text x="970" y="27">2026-05-21 08:12:44</text><text x="1120" y="27">2h 3m</text></g>
</g>
<rect x="16" y="690" width="1368" height="48" rx="3" fill="#2d3238"/><text x="30" y="712" class="small muted">Demo screenshot — all hostnames, IP addresses, AP names, MAC addresses, timestamps and account details are fictional.</text><text x="30" y="730" class="small muted">The layout demonstrates the plugin management page without exposing production information.</text>
</svg>