<svg xmlns="http://www.w3.org/2000/svg" width="1400" height="760" viewBox="0 0 1400 760" role="img" aria-labelledby="title desc">
<title id="title">LibreNMS dashboard with Cisco WLC AP Monitor widget</title>
<desc id="desc">An anonymized demonstration dashboard. All device names, addresses, alert details and account information are fictional.</desc>
<style>text{font-family:Arial,Helvetica,sans-serif;fill:#d9dde3}.small{font-size:12px}.normal{font-size:14px}.head{font-size:15px;font-weight:700}.title{font-size:17px;font-weight:700}.muted{fill:#aeb5bf}.white{fill:#fff}.green{fill:#70bf63}.red{fill:#dc6658}.orange{fill:#eda02b}.blue{fill:#4988c7}.panel{fill:#30353d;stroke:#1b1f24;stroke-width:1}.panelhead{fill:#3a4049}.line{stroke:#24292f;stroke-width:1}</style>
<rect width="1400" height="760" fill="#20242a"/><rect width="1400" height="42" fill="#343941"/><text x="18" y="27" class="title">LibreNMS</text><text x="125" y="27" class="normal">⌂ Overview</text><text x="230" y="27" class="normal">▣ Devices</text><text x="325" y="27" class="normal">▰ Maps</text><text x="405" y="27" class="normal">🔗 Ports</text><text x="490" y="27" class="normal">♥ Health</text><text x="580" y="27" class="normal">⌁ Wireless</text><text x="690" y="27" class="normal">⚙ Services</text><text x="790" y="27" class="normal">Apps</text><text x="865" y="27" class="normal">Routing</text><text x="950" y="27" class="normal">● Alerts</text><text x="1310" y="27" class="small">demo</text>
<rect x="10" y="54" width="1380" height="35" fill="#2d3238"/><text x="20" y="77" class="normal">Dashboards</text><rect x="110" y="58" width="145" height="27" fill="#343941"/><text x="125" y="77" class="small">Default⌄</text><rect x="265" y="58" width="34" height="27" class="red"/><text x="277" y="77" class="white">▣</text><rect x="304" y="58" width="34" height="27" class="green"/><text x="316" y="77" class="white">＋</text>
<g transform="translate(10 102)"><rect width="275" height="445" class="panel"/><rect width="275" height="34" class="panelhead"/><text x="102" y="23" class="head">System status</text><text x="15" y="58" class="normal">Total hosts</text><rect x="82" y="45" width="50" height="18" class="green"/><text x="88" y="58" class="small white">up: 156</text><rect x="138" y="45" width="55" height="18" class="orange"/><text x="144" y="58" class="small white">warn: 4</text><rect x="199" y="45" width="55" height="18" class="red"/><text x="205" y="58" class="small white">down: 1</text>
<g transform="translate(14 82)">
<g fill="#70bf63"> <rect width="22" height="15"/><rect x="27" width="22" height="15"/><rect x="54" width="22" height="15"/><rect x="81" width="22" height="15"/><rect x="108" width="22" height="15"/><rect x="135" width="22" height="15"/><rect x="162" width="22" height="15"/><rect x="189" width="22" height="15"/><rect x="216" width="22" height="15"/></g><g class="small white"><text x="5" y="12">up</text><text x="32" y="12">up</text><text x="59" y="12">up</text><text x="86" y="12">up</text><text x="113" y="12">up</text><text x="140" y="12">up</text><text x="167" y="12">up</text><text x="194" y="12">up</text><text x="221" y="12">up</text></g>
<g transform="translate(0 23)" fill="#70bf63"><rect width="22" height="15"/><rect x="27" width="22" height="15"/><rect x="54" width="22" height="15"/><rect x="81" width="22" height="15"/><rect x="108" width="22" height="15"/><rect x="135" width="22" height="15"/><rect x="162" width="22" height="15"/><rect x="189" width="22" height="15"/><rect x="216" width="22" height="15"/></g><g transform="translate(0 46)" fill="#70bf63"><rect width="22" height="15"/><rect x="27" width="22" height="15"/><rect x="54" width="22" height="15"/><rect x="81" width="22" height="15"/><rect x="108" width="22" height="15"/><rect x="135" width="22" height="15"/><rect x="162" width="22" height="15"/><rect x="189" width="22" height="15"/><rect x="216" width="22" height="15"/></g><g transform="translate(0 69)" fill="#70bf63"><rect width="22" height="15"/><rect x="27" width="22" height="15"/><rect x="54" width="22" height="15"/><rect x="81" width="22" height="15"/><rect x="108" width="22" height="15"/><rect x="135" width="22" height="15"/><rect x="162" width="22" height="15"/><rect x="189" width="22" height="15"/><rect x="216" width="22" height="15"/></g><g transform="translate(0 92)"><rect width="22" height="15" class="green"/><rect x="27" width="22" height="15" class="green"/><rect x="54" width="22" height="15" class="orange"/><rect x="81" width="22" height="15" class="red"/></g>
</g><line x1="0" y1="300" x2="275" y2="300" class="line"/><rect y="300" width="275" height="34" class="panelhead"/><text x="92" y="323" class="head">Component status</text><text x="18" y="362" class="head">Status</text><text x="175" y="362" class="head">Count</text><line x1="15" y1="373" x2="260" y2="373" class="line"/><text x="18" y="400" fill="#70bf63">Ok</text><text x="185" y="400">218</text><text x="18" y="428" fill="#eda02b">Warning</text><text x="185" y="428">2</text></g>
<g transform="translate(295 102)"><rect width="480" height="645" class="panel"/><rect width="480" height="34" class="panelhead"/><text x="218" y="23" class="head">Alerts (1)</text><rect x="18" y="50" width="65" height="28" fill="#343941"/><text x="34" y="69" class="small">Warning</text><rect x="90" y="50" width="55" height="28" fill="#2d3238"/><text x="104" y="69" class="small">Critical</text><rect x="310" y="50" width="115" height="28" fill="#fff"/><text x="323" y="69" fill="#777" class="small">Search</text><text x="22" y="112" class="head">Timestamp</text><text x="130" y="112" class="head">Rule</text><text x="252" y="112" class="head">Hostname</text><text x="350" y="112" class="head">Location</text><line x1="15" y1="124" x2="465" y2="124" class="line"/><rect x="16" y="137" width="448" height="72" fill="#2d3238"/><rect x="16" y="137" width="5" height="72" class="red"/><text x="28" y="160" class="small">2026-05-21</text><text x="28" y="178" class="small">13:58:07</text><text x="130" y="160" fill="#eda02b" class="head">Cisco WLC</text><text x="130" y="180" class="normal">AP Monitor Warning</text><text x="252" y="170" class="head">10.20.30.254</text><text x="350" y="160" class="small">HQ – Core</text><text x="350" y="178" class="small">Closet</text></g>
<g transform="translate(785 102)"><rect width="605" height="275" class="panel"/><rect width="605" height="34" class="panelhead"/><text x="278" y="23" class="head">Syslog</text><rect x="440" y="50" width="110" height="28" fill="#fff"/><text x="455" y="69" fill="#777" class="small">Search</text><text x="25" y="112" class="head">Timestamp</text><text x="155" y="112" class="head">Level</text><text x="260" y="112" class="head">Hostname</text><text x="390" y="112" class="head">Program</text><text x="495" y="112" class="head">Message</text><line x1="15" y1="124" x2="590" y2="124" class="line"/><text x="255" y="158" class="normal muted">No results found.</text>
<g transform="translate(0 292)"><rect width="245" height="263" class="panel"/><rect width="245" height="34" class="panelhead"/><text x="70" y="23" class="head">Device summary</text><text x="18" y="62" class="head">Summary</text><text x="140" y="62" class="head">Devices</text><text x="200" y="62" class="head">Ports</text><line x1="12" y1="72" x2="232" y2="72" class="line"/><text x="18" y="98" fill="#70bf63">Up</text><text x="150" y="98" fill="#70bf63">156</text><text x="205" y="98" fill="#70bf63">1820</text><text x="18" y="126" fill="#dc6658">Down</text><text x="150" y="126" fill="#dc6658">21</text><text x="205" y="126" fill="#dc6658">410</text><text x="18" y="154" fill="#4988c7">Ignored</text><text x="150" y="154">72</text><text x="205" y="154">1410</text><text x="18" y="182">Disabled</text><text x="150" y="182">98</text></g>
<g transform="translate(255 292)"><rect width="350" height="263" class="panel"/><rect width="350" height="34" class="panelhead"/><text x="116" y="23" class="head">Cisco WLC AP Monitor</text><rect x="16" y="50" width="64" height="18" class="green"/><text x="22" y="63" class="small white">Up: 107</text><rect x="86" y="50" width="64" height="18" class="red"/><text x="92" y="63" class="small white">Down: 1</text><rect x="156" y="50" width="72" height="18" fill="#454b54"/><text x="162" y="63" class="small">Ignored: 0</text><text x="16" y="98" class="head">Access point</text><text x="160" y="98" class="head">Controller</text><text x="270" y="98" class="head">Down since</text><line x1="12" y1="108" x2="338" y2="108" class="line"/><rect x="16" y="121" width="42" height="17" class="red"/><text x="21" y="134" class="small white">DOWN</text><text x="66" y="134" class="normal">ROOFTOP-AP1</text><text x="160" y="134" class="normal">branch-wlc-2</text><text x="270" y="134" class="normal">12 minutes ago</text><rect x="16" y="164" width="145" height="30" rx="3" class="blue"/><text x="30" y="184" class="small white">⌁ View all access points</text></g></g></g>
<rect x="10" y="720" width="1380" height="28" fill="#2d3238"/><text x="22" y="739" class="small muted">Demo screenshot — all device names, addresses, alert data, locations and user details are fictional.</text>
</svg>